:FULLY-SPECIFIED
:FORCE-ALL-JOINTS-BE-3DOF
:DEGREES
917
root 3.26685 16.3101 32.4619 0.245709 15.2913 362.013
lfemur -20.2551 14.7044 -7.93037
ltibia 45.1566 0 0
lfoot -12.1879 -17.7535 0
ltoes -1.49368 0 0
rfemur -19.6142 -9.49682 -7.27723
rtibia 51.9068 0 0
rfoot 7.81504 -20.9257 0
rtoes 26.1918 0 0
lowerback 1.99629 -0.413132 -3.07657
upperback -0.00116736 -0.656831 -3.45217
thorax -1.14847 -0.316721 -1.80413
lowerneck -6.92428 -6.54193 -1.88839
upperneck 4.23958 -8.90736 5.48626
head 2.95656 -4.27949 1.67149
lclavicle -3.63155e-15 1.61421e-14 0
lhumerus -51.5577 -37.1234 110.58
lradius 58.9655 0 0
lwrist 12.8464 0 0
lhand 31.8614 16.6709 0
lfingers 7.12502 0 0
lthumb 55.4429 35.0825 0
rclavicle -3.63155e-15 1.61421e-14 0
rhumerus -49.854 23.9526 -102.566
rradius 114.422 0 0
rwrist -7.19367 0 0
rhand -5.26103 -12.4915 0
rfingers 7.12502 0 0
rthumb 20.5396 -761.369 0
918
root 3.2606 16.3006 32.5149 0.255071 15.1957 362.057
lfemur -19.9632 14.6814 -7.85394
ltibia 44.919 0 0
lfoot -12.3034 -17.7915 0
ltoes -1.77641 0 0
rfemur -19.7657 -9.59287 -7.40829
rtibia 52.0089 0 0
rfoot 7.773 -20.8185 0
rtoes 25.9735 0 0
lowerback 1.97465 -0.438365 -3.09305
upperback -0.00508144 -0.6908 -3.48048
thorax -1.14377 -0.333745 -1.82388
lowerneck -6.93005 -6.51499 -1.85803
upperneck 4.25085 -8.87474 5.493
head 2.96064 -4.26266 1.66952
lclavicle -3.18959e-15 1.60353e-14 0
lhumerus -51.5925 -37.3259 110.7
lradius 58.9503 0 0
lwrist 12.8811 0 0
lhand 32.1173 16.7854 0
lfingers 7.12502 0 0
lthumb 55.6817 35.1125 0
rclavicle -3.18959e-15 1.60353e-14 0
rhumerus -49.6009 23.5405 -101.853
rradius 114.092 0 0
rwrist -7.25727 0 0
rhand -5.37312 -12.6131 0
rfingers 7.12502 0 0
rthumb 20.4315 -761.493 0
919
root 3.25394 16.2908 32.5677 0.265335 15.0965 362.102
lfemur -19.6665 14.6556 -7.77504
ltibia 44.673 0 0
lfoot -12.4221 -17.8281 0
ltoes -2.06481 0 0
rfemur -19.9191 -9.68989 -7.53865
rtibia 52.1104 0 0
rfoot 7.72496 -20.7065 0
rtoes 25.7418 0 0
lowerback 1.95242 -0.463471 -3.10876
upperback -0.00909267 -0.724576 -3.50918
thorax -1.13882 -0.350676 -1.84448
lowerneck -6.93586 -6.48662 -1.82616
upperneck 4.26155 -8.8403 5.49931
head 2.96445 -4.24494 1.66724
lclavicle -2.74782e-15 1.59217e-14 0
lhumerus -51.6287 -37.5297 110.821
lradius 58.9345 0 0
lwrist 12.9181 0 0
lhand 32.3735 16.9012 0
lfingers 7.12502 0 0
lthumb 55.9207 35.143 0
rclavicle -2.74782e-15 1.59217e-14 0
rhumerus -49.3381 23.1202 -101.122
rradius 113.745 0 0
rwrist -7.32135 0 0
rhand -5.49001 -12.7405 0
rfingers 7.12502 0 0
rthumb 20.3187 -761.624 0
920
root 3.24688 16.2809 32.6203 0.276501 14.9939 362.146
lfemur -19.3652 14.6271 -7.69369
ltibia 44.4188 0 0
lfoot -12.544 -17.8631 0
ltoes -2.35874 0 0
rfemur -20.0744 -9.78781 -7.66826
rtibia 52.211 0 0
rfoot 7.67092 -20.5898 0
rtoes 25.497 0 0
lowerback 1.9296 -0.488435 -3.1237
upperback -0.0131992 -0.75814 -3.53825
thorax -1.13364 -0.367505 -1.86591
lowerneck -6.94171 -6.45683 -1.79281
upperneck 4.27167 -8.80405 5.5052
head 2.968 -4.22632 1.66465
lclavicle -2.30649e-15 1.58015e-14 0
lhumerus -51.6661 -37.7345 110.942
lradius 58.918 0 0
lwrist 12.9575 0 0
lhand 32.6298 17.0182 0
lfingers 7.12502 0 0
lthumb 56.1597 35.1741 0
rclavicle -2.30649e-15 1.58015e-14 0
rhumerus -49.0655 22.6917 -100.372
rradius 113.382 0 0
rwrist -7.38587 0 0
rhand -5.61164 -12.8737 0
rfingers 7.12502 0 0
rthumb 20.2013 -761.76 0
921
root 3.23941 16.2707 32.6727 0.288568 14.8878 362.191
lfemur -19.0593 14.5958 -7.60992
ltibia 44.1565 0 0
lfoot -12.669 -17.8966 0
ltoes -2.65807 0 0
rfemur -20.2314 -9.8866 -7.79702
rtibia 52.3109 0 0
rfoot 7.61087 -20.4685 0
rtoes 25.2391 0 0
lowerback 1.9062 -0.513242 -3.13785
upperback -0.0173992 -0.79147 -3.56769
thorax -1.1282 -0.384222 -1.88818
lowerneck -6.94759 -6.42563 -1.75798
upperneck 4.28119 -8.766 5.51066
head 2.97127 -4.20682 1.66175
lclavicle -1.86586e-15 1.56745e-14 0
lhumerus -51.7049 -37.9403 111.063
lradius 58.901 0 0
lwrist 12.9992 0 0
lhand 32.886 17.1362 0
lfingers 7.12502 0 0
lthumb 56.3985 35.2058 0
rclavicle -1.86586e-15 1.56745e-14 0
rhumerus -48.7833 22.2554 -99.605
rradius 113.003 0 0
rwrist -7.45081 0 0
rhand -5.73798 -13.0126 0
rfingers 7.12502 0 0
rthumb 20.0793 -761.902 0
922
root 3.23154 16.2604 32.7248 0.301533 14.7785 362.235
lfemur -18.7491 14.5617 -7.52377
ltibia 43.8862 0 0
lfoot -12.7971 -17.9286 0
ltoes -2.96266 0 0
rfemur -20.3901 -9.98619 -7.92485
rtibia 52.4098 0 0
rfoot 7.54482 -20.3426 0
rtoes 24.9681 0 0
lowerback 1.88223 -0.537878 -3.1512
upperback -0.0216909 -0.824546 -3.59748
thorax -1.12253 -0.400815 -1.91127
lowerneck -6.9535 -6.39303 -1.72168
upperneck 4.29011 -8.72617 5.51568
head 2.97428 -4.18643 1.65854
lclavicle -1.42619e-15 1.55408e-14 0
lhumerus -51.7449 -38.147 111.185
lradius 58.8833 0 0
lwrist 13.0432 0 0
lhand 33.1419 17.2553 0
lfingers 7.12502 0 0
lthumb 56.637 35.2379 0
rclavicle -1.42619e-15 1.55408e-14 0
rhumerus -48.4917 21.8113 -98.8205
rradius 112.608 0 0
rwrist -7.51613 0 0
rhand -5.86897 -13.1572 0
rfingers 7.12502 0 0
rthumb 19.9529 -762.05 0
923
root 3.22326 16.2499 32.7765 0.315394 14.6657 362.28
lfemur -18.4346 14.5249 -7.43527
ltibia 43.608 0 0
lfoot -12.9283 -17.959 0
ltoes -3.27236 0 0
rfemur -20.5505 -10.0865 -8.05168
rtibia 52.5078 0 0
rfoot 7.47276 -20.212 0
rtoes 24.6841 0 0
lowerback 1.85771 -0.562326 -3.16374
upperback -0.0260723 -0.857348 -3.62761
thorax -1.11662 -0.417276 -1.93518
lowerneck -6.95944 -6.35903 -1.68393
upperneck 4.29841 -8.68456 5.52026
head 2.97701 -4.16517 1.65502
lclavicle -9.87724e-16 1.54006e-14 0
lhumerus -51.7862 -38.3544 111.308
lradius 58.8651 0 0
lwrist 13.0896 0 0
lhand 33.3975 17.3754 0
lfingers 7.12502 0 0
lthumb 56.875 35.2706 0
rclavicle -9.87724e-16 1.54006e-14 0
rhumerus -48.1906 21.3598 -98.019
rradius 112.197 0 0
rwrist -7.58179 0 0
rhand -6.00458 -13.3074 0
rfingers 7.12502 0 0
rthumb 19.8221 -762.204 0
924
root 3.21459 16.2392 32.8279 0.330152 14.5497 362.325
lfemur -18.1161 14.4853 -7.34446
ltibia 43.3219 0 0
lfoot -13.0623 -17.9877 0
ltoes -3.58705 0 0
rfemur -20.7123 -10.1876 -8.17744
rtibia 52.6048 0 0
rfoot 7.39469 -20.077 0
rtoes 24.3872 0 0
lowerback 1.83264 -0.586571 -3.17545
upperback -0.0305417 -0.889856 -3.65805
thorax -1.11047 -0.433593 -1.95989
lowerneck -6.9654 -6.32366 -1.64474
upperneck 4.30609 -8.64119 5.52439
head 2.97946 -4.14304 1.65119
lclavicle -5.50727e-16 1.52537e-14 0
lhumerus -51.8287 -38.5624 111.43
lradius 58.8462 0 0
lwrist 13.1383 0 0
lhand 33.6526 17.4964 0
lfingers 7.12502 0 0
lthumb 57.1125 35.3038 0
rclavicle -5.50727e-16 1.52537e-14 0
rhumerus -47.8802 20.901 -97.2007
rradius 111.77 0 0
rwrist -7.64777 0 0
rhand -6.14477 -13.4632 0
rfingers 7.12502 0 0
rthumb 19.6868 -762.364 0
925
root 3.20553 16.2284 32.879 0.345804 14.4305 362.37
lfemur -17.7937 14.4429 -7.25137
ltibia 43.0281 0 0
lfoot -13.1993 -18.0148 0
ltoes -3.90658 0 0
rfemur -20.8757 -10.2893 -8.30203
rtibia 52.7008 0 0
rfoot 7.31061 -19.9374 0
rtoes 24.0775 0 0
lowerback 1.80703 -0.6106 -3.18632
upperback -0.0350972 -0.922048 -3.68879
thorax -1.10409 -0.449757 -1.98541
lowerneck -6.97138 -6.28691 -1.60412
upperneck 4.31315 -8.59607 5.52807
head 2.98163 -4.12004 1.64705
lclavicle -1.15453e-16 1.51003e-14 0
lhumerus -51.8724 -38.771 111.553
lradius 58.8268 0 0
lwrist 13.1893 0 0
lhand 33.9069 17.6183 0
lfingers 7.12502 0 0
lthumb 57.3494 35.3375 0
rclavicle -1.15453e-16 1.51003e-14 0
rhumerus -47.5607 20.4351 -96.3661
rradius 111.327 0 0
rwrist -7.71401 0 0
rhand -6.28948 -13.6246 0
rfingers 7.12502 0 0
rthumb 19.5471 -762.529 0
926
root 3.19606 16.2174 32.9296 0.362348 14.308 362.414
lfemur -17.4675 14.3977 -7.15603
ltibia 42.7267 0 0
lfoot -13.3392 -18.0403 0
ltoes -4.23081 0 0
rfemur -21.0404 -10.3916 -8.42539
rtibia 52.7955 0 0
rfoot 7.22051 -19.7934 0
rtoes 23.7549 0 0
lowerback 1.7809 -0.634396 -3.19633
upperback -0.0397369 -0.953905 -3.71983
thorax -1.09747 -0.465757 -2.01172
lowerneck -6.97737 -6.2488 -1.56207
upperneck 4.31956 -8.5492 5.53129
head 2.98351 -4.09619 1.6426
lclavicle 3.17843e-16 1.49403e-14 0
lhumerus -51.9174 -38.98 111.675
lradius 58.8067 0 0
lwrist 13.2425 0 0
lhand 34.1605 17.7409 0
lfingers 7.12502 0 0
lthumb 57.5853 35.3716 0
rclavicle 3.17843e-16 1.49403e-14 0
rhumerus -47.2321 19.9623 -95.5155
rradius 110.869 0 0
rwrist -7.7805 0 0
rhand -6.43867 -13.7915 0
rfingers 7.12502 0 0
rthumb 19.4032 -762.7 0
